# xmcd
#
# Track frame offsets: 
#        150
#        15242
#        32224
#        49096
#        69026
#        92595
#        122689
#        139180
#        166014
#        184552
#        204700
#        221240
#
# Disc length: 3189 seconds
#
# Revision: 0
# Processed by: cddbd v1.5.2PL0 Copyright (c) Steve Scherf et al.
# Submitted via: ExactAudioCopyFreeDBPlugin 1.0
#
DISCID=9c0c730c
DTITLE=Various Artist - Tu qui saigon
DYEAR=1900
DGENRE=
TTITLE0=My tam - Xuong pho mua thu
TTITLE1=Viet Quang - Se khong nhu the
TTITLE2=Dam Vinh Hung - Tinh oi
TTITLE3=Viet Quang - Noi voi em
TTITLE4=My Tam - Suong dem
TTITLE5=Quang dung - Nho mua xua
TTITLE6=Dam vinh Hung - Nha em
TTITLE7=Quang Dung - Tinh suong khoi
TTITLE8=Viet Quang - Lang thang ve dau
TTITLE9=Quang Dung - Tinh xanh
TTITLE10=My Tam - Giau em vao noi nho
TTITLE11=Quang Dung - Mua dem
EXTD=
EXTT0=
EXTT1=
EXTT2=
EXTT3=
EXTT4=
EXTT5=
EXTT6=
EXTT7=
EXTT8=
EXTT9=
EXTT10=
EXTT11=
PLAYORDER=
